<svg id="svg" xmlns="http://www.w3.org/2000/svg" xmlns:xlink="http://www.w3.org/1999/xlink" width="400" height="400" viewBox="0, 0, 400,400"><g id="svgg"><path id="path0" d="M283.553 12.349 C 278.640 15.941,259.519 22.671,241.061 27.305 C 182.816 41.927,177.861 54.204,215.549 90.529 C 236.982 111.187,240.089 116.369,234.836 122.698 C 231.392 126.847,230.205 131.871,232.196 133.863 C 237.912 139.579,249.214 120.573,246.429 109.926 C 245.047 104.641,234.035 92.220,221.958 82.324 C 194.550 59.865,194.421 52.779,221.250 43.391 C 232.938 39.301,253.164 32.188,266.198 27.584 C 279.232 22.979,291.270 16.990,292.949 14.274 C 297.889 6.280,293.173 5.314,283.553 12.349 M148.957 24.942 C 87.514 43.464,91.445 70.009,158.691 90.683 C 204.592 104.795,204.693 104.937,178.269 118.366 C 165.471 124.870,155.000 132.399,155.000 135.096 C 155.000 142.467,159.556 141.211,183.311 127.289 C 221.093 105.147,213.297 95.572,140.000 74.093 C 126.616 70.171,117.500 64.542,117.500 60.199 C 117.500 53.690,124.102 48.224,158.147 26.544 C 169.020 19.620,167.494 19.354,148.957 24.942 M104.439 155.743 C 58.123 170.629,47.857 193.364,81.180 207.255 C 115.437 221.536,225.141 227.074,274.169 216.997 C 281.462 215.499,284.633 216.549,282.624 219.800 C 280.856 222.660,281.793 225.000,284.705 225.000 C 287.617 225.000,290.000 222.906,290.000 220.348 C 290.000 217.789,294.886 214.977,300.858 214.098 C 306.830 213.219,312.580 209.876,313.635 206.670 C 316.027 199.400,300.831 195.664,287.500 200.246 C 268.864 206.650,86.112 203.113,79.214 196.214 C 58.412 175.411,114.712 161.266,214.290 162.278 C 301.874 163.167,306.486 158.052,225.444 149.909 C 165.498 143.885,137.067 145.256,104.439 155.743 M153.248 180.384 C 91.508 188.822,104.249 192.529,189.085 190.810 C 234.963 189.881,273.437 188.193,274.583 187.060 C 284.552 177.203,207.534 172.965,153.248 180.384 M340.872 191.572 C 329.186 204.011,326.294 212.881,335.850 206.975 C 339.733 204.575,340.670 206.042,338.636 211.342 C 336.120 217.899,338.647 217.511,352.786 209.168 C 377.207 194.760,374.113 205.706,347.284 228.639 C 331.026 242.536,325.492 250.465,327.819 256.528 C 337.251 281.108,390.000 239.422,390.000 207.387 C 390.000 178.865,361.445 169.673,340.872 191.572 M372.091 188.035 C 392.899 196.020,377.286 233.560,346.579 249.375 C 327.308 259.300,327.103 255.391,346.214 242.405 C 365.480 229.313,375.000 216.225,375.000 202.829 C 375.000 193.632,359.599 192.401,351.083 200.917 C 347.829 204.171,343.606 205.273,341.698 203.365 C 333.948 195.615,358.963 182.997,372.091 188.035 M312.474 235.057 C 293.297 277.585,288.942 280.436,248.852 276.710 C 222.597 274.270,214.358 274.917,217.011 279.209 C 218.980 282.394,231.575 285.000,245.000 285.000 C 277.868 285.000,279.874 291.722,251.898 308.117 C 193.566 342.302,112.753 315.409,83.968 252.232 C 80.903 245.504,76.506 240.000,74.197 240.000 C 66.054 240.000,70.171 253.543,85.219 276.262 C 128.753 341.986,220.216 355.321,275.447 303.997 C 289.463 290.972,291.895 291.071,323.750 305.960 C 388.289 336.125,290.154 361.742,150.885 351.084 C 48.485 343.247,4.793 328.992,37.500 314.090 C 50.777 308.041,54.265 300.000,43.613 300.000 C -0.152 300.000,13.268 349.760,59.257 358.010 C 69.291 359.810,80.875 363.386,85.000 365.957 C 90.226 369.214,88.205 369.717,78.331 367.615 C 69.137 365.658,65.291 366.425,67.376 369.800 C 69.144 372.660,73.721 375.000,77.547 375.000 C 81.373 375.000,86.397 378.385,88.712 382.522 C 92.368 389.053,104.739 389.436,182.711 385.431 C 232.095 382.895,279.012 382.085,286.971 383.631 C 300.413 386.242,301.262 385.501,298.913 373.214 C 296.661 361.434,298.482 359.358,315.555 354.243 C 368.675 338.328,364.918 299.562,309.068 287.295 L 295.231 284.256 310.395 254.217 C 318.735 237.695,324.777 221.831,323.821 218.963 C 322.865 216.095,317.759 223.337,312.474 235.057 M196.250 373.661 C 184.562 374.714,165.437 374.714,153.750 373.661 C 142.063 372.608,151.625 371.747,175.000 371.747 C 198.375 371.747,207.938 372.608,196.250 373.661 " stroke="none" fill="#000000" fill-rule="evenodd"></path></g></svg>